<?xml version="1.0" encoding="UTF-8"?>
<svg width="1280px" height="1280px" viewBox="0 0 1280 1280" version="1.1" xmlns="http://www.w3.org/2000/svg" xmlns:xlink="http://www.w3.org/1999/xlink">
    <!-- Generator: Sketch 52.5 (67469) - http://www.bohemiancoding.com/sketch -->
    <title>logo-type-light</title>
    <desc>Created with Sketch.</desc>
    <defs>
        <linearGradient x1="50%" y1="0%" x2="50%" y2="100%" id="linearGradient-1">
            <stop stop-color="#4A90E2" offset="0%"></stop>
            <stop stop-color="#4A90E2" offset="97.5659321%"></stop>
        </linearGradient>
    </defs>
    <g id="logo-type-light" stroke="none" stroke-width="1" fill="none" fill-rule="evenodd">
        <path d="M572.171713,248.095396 C609.632242,210.634868 670.367758,210.634868 707.828287,248.095396 L907.904604,448.171713 C945.365132,485.632242 945.365132,546.367758 907.904604,583.828287 L707.828287,783.904604 C670.367758,821.365132 609.632242,821.365132 572.171713,783.904604 L372.095396,583.828287 C334.634868,546.367758 334.634868,485.632242 372.095396,448.171713 L572.171713,248.095396 Z M561.020394,471.499909 L620.653397,369.673743 C612.928126,367.04144 605.912186,362.876372 599.968079,357.541042 L540.374175,459.300443 C548.089589,461.957386 555.092561,466.144774 561.020394,471.499909 Z M679.887929,675.079532 L739.808597,572.762166 C732.083326,570.129863 725.067385,565.964795 719.123279,560.629465 L659.163507,663.013604 C666.898651,665.621244 673.927566,669.763994 679.887929,675.079532 Z M700.402161,504.00954 L579.597839,504.00954 C580.384267,507.883777 580.797102,511.893677 580.797102,516 C580.797102,520.106323 580.384267,524.116223 579.597839,527.99046 L700.402161,527.99046 C699.615733,524.116223 699.202898,520.106323 699.202898,516 C699.202898,511.893677 699.615733,507.883777 700.402161,504.00954 Z M640,360.873419 C666.488594,360.873419 687.961841,339.400171 687.961841,312.911577 C687.961841,286.422984 666.488594,264.949736 640,264.949736 C613.511406,264.949736 592.038159,286.422984 592.038159,312.911577 C592.038159,339.400171 613.511406,360.873419 640,360.873419 Z M640,336.892498 C626.755703,336.892498 616.019079,326.155874 616.019079,312.911577 C616.019079,299.667281 626.755703,288.930657 640,288.930657 C653.244297,288.930657 663.980921,299.667281 663.980921,312.911577 C663.980921,326.155874 653.244297,336.892498 640,336.892498 Z M520.8448,563.961841 C547.333394,563.961841 568.806642,542.488594 568.806642,516 C568.806642,489.511406 547.333394,468.038159 520.8448,468.038159 C494.356206,468.038159 472.882959,489.511406 472.882959,516 C472.882959,542.488594 494.356206,563.961841 520.8448,563.961841 Z M520.8448,539.980921 C507.600503,539.980921 496.863879,529.244297 496.863879,516 C496.863879,502.755703 507.600503,492.019079 520.8448,492.019079 C534.089097,492.019079 544.825721,502.755703 544.825721,516 C544.825721,529.244297 534.089097,539.980921 520.8448,539.980921 Z M759.1552,563.961841 C785.643794,563.961841 807.117041,542.488594 807.117041,516 C807.117041,489.511406 785.643794,468.038159 759.1552,468.038159 C732.666606,468.038159 711.193358,489.511406 711.193358,516 C711.193358,542.488594 732.666606,563.961841 759.1552,563.961841 Z M759.1552,539.980921 C745.910903,539.980921 735.174279,529.244297 735.174279,516 C735.174279,502.755703 745.910903,492.019079 759.1552,492.019079 C772.399497,492.019079 783.136121,502.755703 783.136121,516 C783.136121,529.244297 772.399497,539.980921 759.1552,539.980921 Z M640,767.799668 C666.488594,767.799668 687.961841,746.32642 687.961841,719.837826 C687.961841,693.349233 666.488594,671.875985 640,671.875985 C613.511406,671.875985 592.038159,693.349233 592.038159,719.837826 C592.038159,746.32642 613.511406,767.799668 640,767.799668 Z M640,743.818747 C626.755703,743.818747 616.019079,733.082123 616.019079,719.837826 C616.019079,706.59353 626.755703,695.856906 640,695.856906 C653.244297,695.856906 663.980921,706.59353 663.980921,719.837826 C663.980921,733.082123 653.244297,743.818747 640,743.818747 Z" id="Shape" fill="url(#linearGradient-1)" fill-rule="nonzero"></path>
        <text id="CONNECTIVE" font-family="Futura-Bold, Futura" font-size="128" font-weight="bold" fill="#424242">
            <tspan x="197.696" y="1101">CONNECTIVE</tspan>
        </text>
    </g>
</svg>