<?xml version="1.0" encoding="UTF-8"?>
<svg width="1024px" height="997px" viewBox="0 0 1024 997" version="1.1" xmlns="http://www.w3.org/2000/svg" xmlns:xlink="http://www.w3.org/1999/xlink">
    <!-- Generator: Sketch 52.5 (67469) - http://www.bohemiancoding.com/sketch -->
    <title>logo-dark</title>
    <desc>Created with Sketch.</desc>
    <defs>
        <linearGradient x1="50%" y1="0%" x2="50%" y2="98.2681539%" id="linearGradient-1">
            <stop stop-color="#212121" offset="0%"></stop>
            <stop stop-color="#313131" offset="100%"></stop>
        </linearGradient>
        <linearGradient x1="50%" y1="3.34176301%" x2="50%" y2="97.5772218%" id="linearGradient-2">
            <stop stop-color="#616161" offset="0%"></stop>
            <stop stop-color="#424242" offset="100%"></stop>
        </linearGradient>
        <linearGradient x1="50%" y1="2.54019147%" x2="50%" y2="92.5649129%" id="linearGradient-3">
            <stop stop-color="#212121" offset="0%"></stop>
            <stop stop-color="#282828" offset="100%"></stop>
        </linearGradient>
    </defs>
    <g id="logo-dark" stroke="none" stroke-width="1" fill="none" fill-rule="evenodd">
        <rect id="Rectangle" fill="url(#linearGradient-1)" fill-rule="nonzero" x="0" y="0" width="1024" height="997" rx="64"></rect>
        <path d="M598.548764,416.162374 C599.720071,417.258919 600.870698,418.378242 602,419.519802 C621.66174,442.334312 649.235428,458.136915 680.46066,462.667209 C660.361363,475.038685 643.313674,492.451547 630.980762,513.812776 C611.840365,546.964916 606.345694,584.791631 615.248495,620.345496 L615.471585,621.236419 L615.795154,622.095962 C627.547709,653.315907 624.993346,688.183284 607.994845,717.625552 C577.066899,771.194326 508.568774,789.548343 455,758.620397 C401.431226,727.692451 383.077209,659.194326 414.005155,605.625552 C431.004087,576.182537 459.922052,556.536475 492.834634,551.104672 L493.740805,550.955121 L494.623912,550.702861 C529.86667,540.635749 559.879252,516.964204 579.019238,483.812776 C591.217407,462.684927 597.764338,439.493976 598.548764,416.162363 L598.548764,416.162374 Z M442.38255,382.761202 C442.508336,382.228655 442.637727,381.696809 442.770719,381.165696 C453.705549,352.117986 454.055197,319.307185 442.114952,289.095355 C462.77999,300.112624 486.313247,306 511,306 C550.1799,306 586.680268,290.716789 613.374617,263.732668 L613.761237,263.341852 L614.12012,262.925421 C635.281294,238.371042 665.956573,224 699,224 C760.855892,224 811,274.144108 811,336 C811,397.855892 760.855892,448 699,448 C665.956573,448 635.281294,433.628958 614.12012,409.074579 L613.761237,408.658148 L613.374617,408.267332 C586.680268,381.283211 550.1799,366 511,366 C486.419401,366 462.98278,371.836168 442.38255,382.761202 Z M492.134784,534.757153 C491.501356,534.94926 490.866173,535.13629 490.229281,535.318218 C459.479597,540.393062 430.780369,556.607751 410.572649,582.236408 C409.908285,558.644168 403.352149,535.174005 391.019238,513.812776 C371.878841,480.660636 341.86728,456.988753 306.625329,446.921873 L305.742223,446.669613 L304.836052,446.520061 C271.922508,441.088099 243.003656,421.442267 226.005155,392 C195.077209,338.431226 213.431226,269.933101 267,239.005155 C320.568774,208.077209 389.066899,226.431226 419.994845,280 C436.993778,309.443015 439.548784,344.309737 427.796572,375.528772 L427.473002,376.388315 L427.249912,377.279237 C418.346907,412.833917 423.840776,450.661348 442.980762,483.812776 C455.246966,505.058464 472.177082,522.398383 492.134784,534.757153 Z" id="Shape" fill="url(#linearGradient-2)" fill-rule="nonzero"></path>
        <path d="M699,432 C645.980664,432 603,389.019336 603,336 C603,282.980664 645.980664,240 699,240 C752.019336,240 795,282.980664 795,336 C795,389.019336 752.019336,432 699,432 Z M323,432 C269.980664,432 227,389.019336 227,336 C227,282.980664 269.980664,240 323,240 C376.019336,240 419,282.980664 419,336 C419,389.019336 376.019336,432 323,432 Z M511,757.63 C457.980664,757.63 415,714.649336 415,661.63 C415,608.610664 457.980664,565.63 511,565.63 C564.019336,565.63 607,608.610664 607,661.63 C607,714.649336 564.019336,757.63 511,757.63 Z" id="Shape" fill="url(#linearGradient-3)" fill-rule="nonzero"></path>
        <text id="CONNECTIVE-Copy" font-family="Futura-Bold, Futura" font-size="50" font-weight="bold" fill="#FFFFFF">
            <tspan x="339.225" y="826">CONNECTIVE</tspan>
        </text>
    </g>
</svg>