<?xml version="1.0" encoding="UTF-8"?>
<svg width="1024px" height="997px" viewBox="0 0 1024 997" version="1.1" xmlns="http://www.w3.org/2000/svg" xmlns:xlink="http://www.w3.org/1999/xlink">
    <!-- Generator: Sketch 52.5 (67469) - http://www.bohemiancoding.com/sketch -->
    <title>logo-light</title>
    <desc>Created with Sketch.</desc>
    <defs>
        <linearGradient x1="50%" y1="0%" x2="50%" y2="100%" id="linearGradient-1">
            <stop stop-color="#616161" offset="0%"></stop>
            <stop stop-color="#212121" offset="100%"></stop>
        </linearGradient>
        <linearGradient x1="50%" y1="4.85923008%" x2="50%" y2="97.6275456%" id="linearGradient-2">
            <stop stop-color="#BDBDBD" offset="0%"></stop>
            <stop stop-color="#E0E0E0" offset="100%"></stop>
        </linearGradient>
    </defs>
    <g id="logo-light" stroke="none" stroke-width="1" fill="none" fill-rule="evenodd">
        <path d="M512.33365,527.112806 C534.192371,516.194619 552.956471,498.686863 566.162831,475.812776 C579.374466,452.929554 584.938514,427.790289 583.366139,403.338591 C562.976535,389.751026 538.423268,382 512,382 C485.453029,382 460.79361,389.571743 440.347768,403.171886 C438.791881,427.679302 444.563397,452.821928 457.837169,475.812776 C471.115662,498.8118 490.230363,516.260086 512.33365,527.112806 Z M391.245936,619.101337 C399.856968,587.357213 395.908859,552.549796 378.162831,521.812776 C360.896311,491.906285 334.130811,471.172178 303.368421,462.345943 C287.625585,459.794906 272.845368,454.372447 259.582539,446.633338 C244.392074,437.807729 230.853515,425.753914 220.100685,410.775449 C211.161195,398.375976 204.386646,384.311913 200.330832,369.137054 C196.258169,353.975998 195.092073,338.418009 196.630189,323.218285 C198.466482,304.696374 204.250997,287.335577 213.130287,271.989342 C221.980871,256.626534 234.123502,242.936601 249.245799,232.08537 C261.640094,223.153455 275.696757,216.384329 290.862946,212.330832 C306.024002,208.258169 321.581991,207.092073 336.781715,208.630189 C355.303626,210.466482 372.664423,216.250997 388.010658,225.130287 C401.180106,232.717266 413.120256,242.72338 423.096719,254.95185 C446.12224,277.183486 477.463816,290 512,290 C547.492054,290 579.610216,276.015454 602.795917,252.68602 C612.376446,241.482574 623.642645,232.243276 635.989342,225.130287 C651.335577,216.250997 668.696374,210.466482 687.218285,208.630189 C702.41801,207.092073 717.976,208.258169 733.137054,212.330832 C748.303245,216.38433 762.359906,223.153455 774.754196,232.085366 C789.876495,242.936598 802.019128,256.626532 810.869713,271.989342 C819.749002,287.335576 825.533517,304.696369 827.36981,323.218278 C828.907927,338.41801 827.741831,353.976 823.669168,369.137054 C819.61567,384.303245 812.846545,398.359906 803.914634,410.754196 C793.063402,425.876495 779.373468,438.019128 764.010658,446.869713 C751.677282,454.005771 738.042716,459.142937 723.549973,461.838197 C691.753246,470.252886 663.583195,491.075757 645.837169,521.812776 C628.570648,551.719267 623.997134,585.265923 631.734585,616.320052 C637.396741,631.229266 640.090863,646.74054 640.020012,662.096041 C639.972042,679.664174 636.302412,697.415817 628.707096,714.217274 C622.438582,728.158836 613.646021,741.057798 602.532114,752.157666 C591.438588,763.265223 578.548022,772.054087 564.615615,778.321901 C547.657019,785.992581 529.729873,789.663442 512,789.646869 C494.270125,789.663442 476.342977,785.992581 459.384385,778.321902 C445.451978,772.054087 432.561412,763.265223 421.467886,752.157666 C410.360329,741.06414 401.571465,728.173574 395.30365,714.241167 C387.632971,697.282575 383.96211,679.355427 383.978683,661.625552 C383.965364,647.376504 386.333731,633.000041 391.245938,619.101327 L391.245936,619.101337 Z" id="Shape" fill="#E0E0E0" fill-rule="nonzero"></path>
        <path d="M599.548764,416.162374 C600.720071,417.258919 601.870698,418.378242 603,419.519802 C622.66174,442.334312 650.235428,458.136915 681.46066,462.667209 C661.361363,475.038685 644.313674,492.451547 631.980762,513.812776 C612.840365,546.964916 607.345694,584.791631 616.248495,620.345496 L616.471585,621.236419 L616.795154,622.095962 C628.547709,653.315907 625.993346,688.183284 608.994845,717.625552 C578.066899,771.194326 509.568774,789.548343 456,758.620397 C402.431226,727.692451 384.077209,659.194326 415.005155,605.625552 C432.004087,576.182537 460.922052,556.536475 493.834634,551.104672 L494.740805,550.955121 L495.623912,550.702861 C530.86667,540.635749 560.879252,516.964204 580.019238,483.812776 C592.217407,462.684927 598.764338,439.493976 599.548764,416.162363 L599.548764,416.162374 Z M443.38255,382.761202 C443.508336,382.228655 443.637727,381.696809 443.770719,381.165696 C454.705549,352.117986 455.055197,319.307185 443.114952,289.095355 C463.77999,300.112624 487.313247,306 512,306 C551.1799,306 587.680268,290.716789 614.374617,263.732668 L614.761237,263.341852 L615.12012,262.925421 C636.281294,238.371042 666.956573,224 700,224 C761.855892,224 812,274.144108 812,336 C812,397.855892 761.855892,448 700,448 C666.956573,448 636.281294,433.628958 615.12012,409.074579 L614.761237,408.658148 L614.374617,408.267332 C587.680268,381.283211 551.1799,366 512,366 C487.419401,366 463.98278,371.836168 443.38255,382.761202 Z M493.134784,534.757153 C492.501356,534.94926 491.866173,535.13629 491.229281,535.318218 C460.479597,540.393062 431.780369,556.607751 411.572649,582.236408 C410.908285,558.644168 404.352149,535.174005 392.019238,513.812776 C372.878841,480.660636 342.86728,456.988753 307.625329,446.921873 L306.742223,446.669613 L305.836052,446.520061 C272.922508,441.088099 244.003656,421.442267 227.005155,392 C196.077209,338.431226 214.431226,269.933101 268,239.005155 C321.568774,208.077209 390.066899,226.431226 420.994845,280 C437.993778,309.443015 440.548784,344.309737 428.796572,375.528772 L428.473002,376.388315 L428.249912,377.279237 C419.346907,412.833917 424.840776,450.661348 443.980762,483.812776 C456.246966,505.058464 473.177082,522.398383 493.134784,534.757153 Z" id="Combined-Shape" fill="url(#linearGradient-1)" fill-rule="nonzero"></path>
        <path d="M700,432 C646.980664,432 604,389.019336 604,336 C604,282.980664 646.980664,240 700,240 C753.019336,240 796,282.980664 796,336 C796,389.019336 753.019336,432 700,432 Z M324,432 C270.980664,432 228,389.019336 228,336 C228,282.980664 270.980664,240 324,240 C377.019336,240 420,282.980664 420,336 C420,389.019336 377.019336,432 324,432 Z M512,757.625552 C458.980664,757.625552 416,714.644888 416,661.625552 C416,608.606216 458.980664,565.625552 512,565.625552 C565.019336,565.625552 608,608.606216 608,661.625552 C608,714.644888 565.019336,757.625552 512,757.625552 Z" id="Shape" fill="url(#linearGradient-2)" fill-rule="nonzero"></path>
    </g>
</svg>