<?xml version="1.0" encoding="UTF-8"?>
<svg width="448px" height="180px" viewBox="0 0 448 180" version="1.1" xmlns="http://www.w3.org/2000/svg" xmlns:xlink="http://www.w3.org/1999/xlink">
    <!-- Generator: Sketch 52.5 (67469) - http://www.bohemiancoding.com/sketch -->
    <title>404</title>
    <desc>Created with Sketch.</desc>
    <g id="404" stroke="none" stroke-width="1" fill="none" fill-rule="evenodd">
        <path d="M345,140 L377,140 L377,142 L345,142 L345,140 Z M345,134 L377,134 L377,136 L345,136 L345,134 Z M345,128 L377,128 L377,130 L345,130 L345,128 Z M315,122 L377,122 L377,124 L315,124 L315,122 Z M313,116 L377,116 L377,118 L313,118 L313,116 Z M313,110 L377,110 L377,112 L313,112 L313,110 Z M313,104 L329,104 L329,106 L313,106 L313,104 Z M345,104 L377,104 L377,106 L345,106 L345,104 Z M345,98 L401,98 L401,100 L345,100 L345,98 Z M313,98 L329,98 L329,100 L313,100 L313,98 Z M315,92 L327,92 L327,94 L315,94 L315,92 Z M345,92 L405,92 L405,94 L345,94 L345,92 Z M345,86 L405,86 L405,88 L345,88 L345,86 Z M389,80 L405,80 L405,82 L389,82 L389,80 Z M389,74 L405,74 L405,76 L389,76 L389,74 Z M389,68 L405,68 L405,70 L389,70 L389,68 Z M389,62 L405,62 L405,64 L389,64 L389,62 Z M391,56 L403,56 L403,58 L391,58 L391,56 Z M345,80 L377,80 L377,82 L345,82 L345,80 Z M345,74 L377,74 L377,76 L345,76 L345,74 Z M345,68 L377,68 L377,70 L345,70 L345,68 Z M345,62 L377,62 L377,64 L345,64 L345,62 Z M345,56 L377,56 L377,58 L345,58 L345,56 Z M345,50 L377,50 L377,52 L345,52 L345,50 Z M345,44 L377,44 L377,46 L345,46 L345,44 Z M348,38 L374,38 L374,40 L348,40 L348,38 Z M353,32 L369,32 L369,34 L353,34 L353,32 Z M159,140 L289,140 L289,142 L159,142 L159,140 Z M158,134 L290,134 L290,136 L158,136 L158,134 Z M159,128 L289,128 L289,130 L159,130 L159,128 Z M160,122 L288,122 L288,124 L160,124 L160,122 Z M162,116 L286,116 L286,118 L162,118 L162,116 Z M164,110 L284,110 L284,112 L164,112 L164,110 Z M167,104 L281,104 L281,106 L167,106 L167,104 Z M170,98 L278,98 L278,100 L170,100 L170,98 Z M175,92 L273,92 L273,94 L175,94 L175,92 Z M182,86 L266,86 L266,88 L182,88 L182,86 Z M190,80 L258,80 L258,82 L190,82 L190,80 Z M203,74 L245,74 L245,76 L203,76 L203,74 Z M222,68 L226,68 L226,70 L222,70 L222,68 Z M32,146 L416,146 L416,148 L32,148 L32,146 Z" id="Shape" fill="#E0E0E0" fill-rule="nonzero"></path>
    </g>
</svg>