<?xml version="1.0" encoding="UTF-8"?>
<svg width="1280px" height="1280px" viewBox="0 0 1280 1280" version="1.1" xmlns="http://www.w3.org/2000/svg" xmlns:xlink="http://www.w3.org/1999/xlink">
    <!-- Generator: Sketch 52.5 (67469) - http://www.bohemiancoding.com/sketch -->
    <title>logo-type-dark</title>
    <desc>Created with Sketch.</desc>
    <g id="logo-type-dark" stroke="none" stroke-width="1" fill="none" fill-rule="evenodd">
        <path d="M572.171713,246.095396 C609.632242,208.634868 670.367758,208.634868 707.828287,246.095396 L907.904604,446.171713 C945.365132,483.632242 945.365132,544.367758 907.904604,581.828287 L707.828287,781.904604 C670.367758,819.365132 609.632242,819.365132 572.171713,781.904604 L372.095396,581.828287 C334.634868,544.367758 334.634868,483.632242 372.095396,446.171713 L572.171713,246.095396 Z M561.020394,469.499909 L620.653397,367.673743 C612.928126,365.04144 605.912186,360.876372 599.968079,355.541042 L540.374175,457.300443 C548.089589,459.957386 555.092561,464.144774 561.020394,469.499909 Z M679.887929,673.079532 L739.808597,570.762166 C732.083326,568.129863 725.067385,563.964795 719.123279,558.629465 L659.163507,661.013604 C666.898651,663.621244 673.927566,667.763994 679.887929,673.079532 Z M700.402161,502.00954 L579.597839,502.00954 C580.384267,505.883777 580.797102,509.893677 580.797102,514 C580.797102,518.106323 580.384267,522.116223 579.597839,525.99046 L700.402161,525.99046 C699.615733,522.116223 699.202898,518.106323 699.202898,514 C699.202898,509.893677 699.615733,505.883777 700.402161,502.00954 Z M640,358.873419 C666.488594,358.873419 687.961841,337.400171 687.961841,310.911577 C687.961841,284.422984 666.488594,262.949736 640,262.949736 C613.511406,262.949736 592.038159,284.422984 592.038159,310.911577 C592.038159,337.400171 613.511406,358.873419 640,358.873419 Z M640,334.892498 C626.755703,334.892498 616.019079,324.155874 616.019079,310.911577 C616.019079,297.667281 626.755703,286.930657 640,286.930657 C653.244297,286.930657 663.980921,297.667281 663.980921,310.911577 C663.980921,324.155874 653.244297,334.892498 640,334.892498 Z M520.8448,561.961841 C547.333394,561.961841 568.806642,540.488594 568.806642,514 C568.806642,487.511406 547.333394,466.038159 520.8448,466.038159 C494.356206,466.038159 472.882959,487.511406 472.882959,514 C472.882959,540.488594 494.356206,561.961841 520.8448,561.961841 Z M520.8448,537.980921 C507.600503,537.980921 496.863879,527.244297 496.863879,514 C496.863879,500.755703 507.600503,490.019079 520.8448,490.019079 C534.089097,490.019079 544.825721,500.755703 544.825721,514 C544.825721,527.244297 534.089097,537.980921 520.8448,537.980921 Z M759.1552,561.961841 C785.643794,561.961841 807.117041,540.488594 807.117041,514 C807.117041,487.511406 785.643794,466.038159 759.1552,466.038159 C732.666606,466.038159 711.193358,487.511406 711.193358,514 C711.193358,540.488594 732.666606,561.961841 759.1552,561.961841 Z M759.1552,537.980921 C745.910903,537.980921 735.174279,527.244297 735.174279,514 C735.174279,500.755703 745.910903,490.019079 759.1552,490.019079 C772.399497,490.019079 783.136121,500.755703 783.136121,514 C783.136121,527.244297 772.399497,537.980921 759.1552,537.980921 Z M640,765.799668 C666.488594,765.799668 687.961841,744.32642 687.961841,717.837826 C687.961841,691.349233 666.488594,669.875985 640,669.875985 C613.511406,669.875985 592.038159,691.349233 592.038159,717.837826 C592.038159,744.32642 613.511406,765.799668 640,765.799668 Z M640,741.818747 C626.755703,741.818747 616.019079,731.082123 616.019079,717.837826 C616.019079,704.59353 626.755703,693.856906 640,693.856906 C653.244297,693.856906 663.980921,704.59353 663.980921,717.837826 C663.980921,731.082123 653.244297,741.818747 640,741.818747 Z" id="Shape" fill="#4A90E2" fill-rule="nonzero"></path>
        <text id="CONNECTIVE" font-family="Futura-Bold, Futura" font-size="128" font-weight="bold" fill="#FFFFFF">
            <tspan x="197.696" y="1101">CONNECTIVE</tspan>
        </text>
    </g>
</svg>