<?xml version="1.0" encoding="UTF-8"?>
<svg width="1280px" height="1280px" viewBox="0 0 1280 1280" version="1.1" xmlns="http://www.w3.org/2000/svg" xmlns:xlink="http://www.w3.org/1999/xlink">
    <!-- Generator: Sketch 52.5 (67469) - http://www.bohemiancoding.com/sketch -->
    <title>logo-light</title>
    <desc>Created with Sketch.</desc>
    <defs>
        <linearGradient x1="50%" y1="0%" x2="50%" y2="100%" id="linearGradient-1">
            <stop stop-color="#4A90E2" offset="0%"></stop>
            <stop stop-color="#4A90E2" offset="97.5659321%"></stop>
        </linearGradient>
    </defs>
    <g id="logo-light" stroke="none" stroke-width="1" fill="none" fill-rule="evenodd">
        <path d="M549.470996,282.490332 C599.458105,232.503223 680.503223,232.503223 730.490332,282.490332 L997.470996,549.470996 C1047.45811,599.458105 1047.45811,680.503223 997.470996,730.490332 L730.490332,997.470996 C680.503223,1047.45811 599.458105,1047.45811 549.470996,997.470996 L282.490332,730.490332 C232.503223,680.503223 232.503223,599.458105 282.490332,549.470996 L549.470996,282.490332 Z M534.590741,580.600004 L614.164671,444.723765 C603.856114,441.211235 594.494084,435.653393 586.562303,428.53396 L507.040548,564.321108 C517.335951,567.866517 526.680675,573.454142 534.590741,580.600004 Z M693.206883,852.255459 L773.164671,715.723765 C762.856114,712.211235 753.494084,706.653393 745.562303,699.53396 L665.552335,836.154755 C675.874067,839.634375 685.253409,845.162436 693.206883,852.255459 Z M720.580954,623.980664 L559.380374,623.980664 C560.42978,629.150423 560.980664,634.501211 560.980664,639.980664 C560.980664,645.460117 560.42978,650.810905 559.380374,655.980664 L720.580954,655.980664 C719.531548,650.810905 718.980664,645.460117 718.980664,639.980664 C718.980664,634.501211 719.531548,629.150423 720.580954,623.980664 Z M639.980664,432.980664 C675.326888,432.980664 703.980664,404.326888 703.980664,368.980664 C703.980664,333.63444 675.326888,304.980664 639.980664,304.980664 C604.63444,304.980664 575.980664,333.63444 575.980664,368.980664 C575.980664,404.326888 604.63444,432.980664 639.980664,432.980664 Z M639.980664,400.980664 C622.307552,400.980664 607.980664,386.653776 607.980664,368.980664 C607.980664,351.307552 622.307552,336.980664 639.980664,336.980664 C657.653776,336.980664 671.980664,351.307552 671.980664,368.980664 C671.980664,386.653776 657.653776,400.980664 639.980664,400.980664 Z M480.980664,703.980664 C516.326888,703.980664 544.980664,675.326888 544.980664,639.980664 C544.980664,604.63444 516.326888,575.980664 480.980664,575.980664 C445.63444,575.980664 416.980664,604.63444 416.980664,639.980664 C416.980664,675.326888 445.63444,703.980664 480.980664,703.980664 Z M480.980664,671.980664 C463.307552,671.980664 448.980664,657.653776 448.980664,639.980664 C448.980664,622.307552 463.307552,607.980664 480.980664,607.980664 C498.653776,607.980664 512.980664,622.307552 512.980664,639.980664 C512.980664,657.653776 498.653776,671.980664 480.980664,671.980664 Z M798.980664,703.980664 C834.326888,703.980664 862.980664,675.326888 862.980664,639.980664 C862.980664,604.63444 834.326888,575.980664 798.980664,575.980664 C763.63444,575.980664 734.980664,604.63444 734.980664,639.980664 C734.980664,675.326888 763.63444,703.980664 798.980664,703.980664 Z M798.980664,671.980664 C781.307552,671.980664 766.980664,657.653776 766.980664,639.980664 C766.980664,622.307552 781.307552,607.980664 798.980664,607.980664 C816.653776,607.980664 830.980664,622.307552 830.980664,639.980664 C830.980664,657.653776 816.653776,671.980664 798.980664,671.980664 Z M639.980664,975.980664 C675.326888,975.980664 703.980664,947.326888 703.980664,911.980664 C703.980664,876.63444 675.326888,847.980664 639.980664,847.980664 C604.63444,847.980664 575.980664,876.63444 575.980664,911.980664 C575.980664,947.326888 604.63444,975.980664 639.980664,975.980664 Z M639.980664,943.980664 C622.307552,943.980664 607.980664,929.653776 607.980664,911.980664 C607.980664,894.307552 622.307552,879.980664 639.980664,879.980664 C657.653776,879.980664 671.980664,894.307552 671.980664,911.980664 C671.980664,929.653776 657.653776,943.980664 639.980664,943.980664 Z" id="default" fill="url(#linearGradient-1)" fill-rule="nonzero"></path>
    </g>
</svg>