<?xml version="1.0" encoding="UTF-8"?>
<svg width="256px" height="256px" viewBox="0 0 256 256" version="1.1" xmlns="http://www.w3.org/2000/svg" xmlns:xlink="http://www.w3.org/1999/xlink">
    <!-- Generator: Sketch 52.5 (67469) - http://www.bohemiancoding.com/sketch -->
    <title>search</title>
    <desc>Created with Sketch.</desc>
    <g id="search" stroke="none" stroke-width="1" fill="none" fill-rule="evenodd">
        <path d="M155.558859,144.245151 L164.39697,153.083261 L170.053824,147.426407 L215.308658,192.681241 L192.681241,215.308658 L147.426407,170.053824 L153.083261,164.39697 L144.245151,155.558859 C133.407681,163.983347 119.789692,169 105,169 C69.653776,169 41,140.346224 41,105 L57,105 C57,131.509668 78.490332,153 105,153 C131.509668,153 153,131.509668 153,105 C153,78.490332 131.509668,57 105,57 L105,41 C140.346224,41 169,69.653776 169,105 C169,119.789692 163.983347,133.407681 155.558859,144.245151 Z" id="Path" fill="#4A90E2" fill-rule="nonzero"></path>
    </g>
</svg>